<svg width="142" height="47" viewBox="0 0 142 47" fill="none" xmlns="http://www.w3.org/2000/svg">
<g id="Layer_1" clip-path="url(#clip0_217_112)">
<g id="Group">
<g id="Group_2">
<path id="Vector" d="M68.3327 25.3787H65.0702V21.1837C64.8202 23.8862 62.9577 25.7512 60.5027 25.7512C57.3952 25.7512 55.0352 23.6087 55.0352 20.7512C55.0352 17.5512 57.7702 15.7512 61.2177 15.7512H62.0877C64.0452 15.7512 65.0702 14.9737 65.0702 13.5137V12.0537H57.7702V9.3512H65.0702C67.0902 9.3512 68.3327 10.5012 68.3327 12.3337V25.3812V25.3787ZM61.3727 23.2362C63.4227 23.2362 65.0702 21.9312 65.0702 20.3787V17.3037C64.3252 17.8637 63.3302 18.1437 62.1177 18.1437H61.3727C59.4477 18.1437 58.2977 19.1687 58.2977 20.7212C58.2977 22.2737 59.4477 23.2362 61.3727 23.2362Z" fill="white"/>
<path id="Vector_2" d="M78.1795 25.7512C73.7995 25.6287 71.3145 22.9562 71.3145 20.1912H74.5769C74.5769 21.7137 75.9445 23.1112 78.182 23.2037C80.3245 23.2662 81.5369 22.2112 81.5369 20.9062C81.5369 19.8487 80.7594 19.2587 77.9644 18.6687C74.7344 18.0787 71.782 16.9912 71.782 13.6062C71.782 11.0587 74.4845 8.9762 78.087 8.9762C82.1245 8.9762 84.362 11.5537 84.362 13.9162H81.0994C81.0994 12.4262 79.8869 11.4937 78.0844 11.4937C76.4394 11.4937 75.0095 12.3637 75.0095 13.5762C75.0095 14.6012 75.7545 15.1912 78.612 15.7812C81.7495 16.4337 84.7944 17.6462 84.7944 20.9087C84.7944 24.1712 81.6869 25.8487 78.1769 25.7537L78.1795 25.7512Z" fill="white"/>
<path id="Vector_3" d="M94.0844 22.6137H95.297V25.3787H93.867C90.947 25.3787 89.2995 23.8862 89.2995 21.2162V14.8162C89.2995 12.7037 88.617 11.9587 86.5645 11.9587V9.3487H89.2995V5.8087H92.562V9.3487H95.297V11.9587H88.2445C91.1345 12.1462 92.562 13.1087 92.562 14.8162V20.9662C92.562 22.0537 93.0894 22.6112 94.0844 22.6112V22.6137Z" fill="white"/>
<path id="Vector_4" d="M97.1309 17.3637C97.1309 12.3637 100.083 8.9762 104.586 8.9762C109.088 8.9762 112.041 12.3612 112.041 17.3637C112.041 22.3662 109.088 25.7512 104.586 25.7512C100.083 25.7512 97.1309 22.3662 97.1309 17.3637ZM104.586 22.9862C107.008 22.9862 108.781 20.6862 108.781 17.3637C108.781 14.0412 107.008 11.7412 104.586 11.7412C102.163 11.7412 100.391 14.0387 100.391 17.3637C100.391 20.6887 102.163 22.9862 104.586 22.9862Z" fill="white"/>
<path id="Vector_5" d="M118.567 9.3487V14.6612C118.755 11.4312 119.872 8.9762 122.14 8.9762C122.792 8.9762 123.445 9.1012 124.097 9.3487V12.3937C124.097 12.3937 123.352 12.0212 121.985 12.0212C119.53 12.0212 118.567 13.8537 118.567 15.7487V25.3787H115.305V9.3487H118.567Z" fill="white"/>
<path id="Vector_6" d="M137.672 25.3787H134.41V21.1837C134.16 23.8862 132.297 25.7512 129.842 25.7512C126.735 25.7512 124.375 23.6087 124.375 20.7512C124.375 17.5512 127.11 15.7512 130.557 15.7512H131.428C133.385 15.7512 134.41 14.9737 134.41 13.5137V12.0537H127.11V9.3512H134.41C136.43 9.3512 137.672 10.5012 137.672 12.3337V25.3812V25.3787ZM130.715 23.2362C132.765 23.2362 134.413 21.9312 134.413 20.3787V17.3037C133.668 17.8637 132.672 18.1437 131.462 18.1437H130.717C128.792 18.1437 127.643 19.1687 127.643 20.7212C127.643 22.2737 128.792 23.2362 130.717 23.2362H130.715Z" fill="white"/>
</g>
<g id="Group_3">
<path id="Vector_7" d="M56.4497 30.8487V39.5662H61.4272V40.9187H54.8672V30.8487H56.4497Z" fill="white"/>
<path id="Vector_8" d="M96.5446 41.1937C94.3296 41.1937 92.4746 39.4962 92.4746 37.2087V30.8487H94.0571V37.1637C94.0571 38.7037 95.1496 39.8387 96.5446 39.8387C97.9396 39.8387 99.0346 38.7037 99.0346 37.1637V30.8487H100.602V37.2087C100.602 39.4962 98.7596 41.1937 96.5446 41.1937Z" fill="white"/>
<path id="Vector_9" d="M140.787 31.1037L137.695 35.5787C136.43 37.5212 138.142 39.5937 141.047 39.5937V41.1762C137.522 41.1762 135.912 38.6312 137.422 35.9687L133.825 41.1762H131.91L134.932 36.8037C136.312 34.8337 134.617 32.6887 131.652 32.6887V31.1062C135.205 31.1062 136.787 33.6812 135.235 36.3562L138.875 31.1062H140.787V31.1037Z" fill="white"/>
</g>
</g>
<g id="Group_4">
<path id="Vector_10" d="M23.9475 0.751236L46.275 23.4987H22.895L0 46.2487V23.4987L23.9475 0.751236Z" fill="#F18B50"/>
<path id="Vector_11" d="M23.5566 23.8462L23.7966 46.2487H46.5841L23.5566 23.8462Z" fill="#F18B50"/>
</g>
</g>
<defs>
<clipPath id="clip0_217_112">
<rect width="141.042" height="45.4975" fill="white" transform="translate(0 0.751251)"/>
</clipPath>
</defs>
</svg>
